<?xml version="1.0" encoding="UTF-8"?>
<!DOCTYPE svg PUBLIC "-//W3C//DTD SVG 1.1//EN" "http://www.w3.org/Graphics/SVG/1.1/DTD/svg11.dtd">
<svg xmlns="http://www.w3.org/2000/svg" version="1.1" width="1920px" height="1080px" style="shape-rendering:geometricPrecision; text-rendering:geometricPrecision; image-rendering:optimizeQuality; fill-rule:evenodd; clip-rule:evenodd" xmlns:xlink="http://www.w3.org/1999/xlink">
<g><path style="opacity:1" fill="#0072a8" d="M 1427.5,-0.5 C 1453.5,-0.5 1479.5,-0.5 1505.5,-0.5C 1524.16,79.1808 1542.5,158.848 1560.5,238.5C 1481.14,197.54 1402.47,155.873 1324.5,113.5C 1330.49,106.175 1336.83,99.1754 1343.5,92.5C 1346.73,90.7801 1349.56,88.4468 1352,85.5C 1362.07,74.3312 1371.91,62.9979 1381.5,51.5C 1396.44,33.8894 1411.77,16.5561 1427.5,-0.5 Z"/></g>
<g><path style="opacity:1" fill="#033b85" d="M 1505.5,-0.5 C 1535.17,-0.5 1564.83,-0.5 1594.5,-0.5C 1593.7,0.423175 1593.53,1.42317 1594,2.5C 1641.32,39.2675 1689.16,75.6008 1737.5,111.5C 1740.5,113.519 1742.83,116.186 1744.5,119.5C 1749.11,122.166 1753.78,124.833 1758.5,127.5C 1760.93,129.644 1762.93,132.144 1764.5,135C 1768.44,134.563 1770.78,136.229 1771.5,140C 1775.63,141.566 1779.63,143.399 1783.5,145.5C 1813.31,169.979 1843.98,193.312 1875.5,215.5C 1837.69,288.448 1798.86,360.782 1759,432.5C 1755.98,441.191 1751.65,449.191 1746,456.5C 1733.93,479.969 1721.93,503.302 1710,526.5C 1698.91,544.998 1688.58,563.998 1679,583.5C 1674.41,591.004 1670.08,598.671 1666,606.5C 1665.08,607.047 1664.24,607.713 1663.5,608.5C 1662.25,613.859 1660.25,618.859 1657.5,623.5C 1655.75,625.033 1654.75,627.033 1654.5,629.5C 1653.88,629.611 1653.38,629.944 1653,630.5C 1652.77,629.263 1652.27,628.263 1651.5,627.5C 1621.69,497.926 1591.36,368.259 1560.5,238.5C 1542.5,158.848 1524.16,79.1808 1505.5,-0.5 Z"/></g>
<g><path style="opacity:1" fill="#022960" d="M 1594.5,-0.5 C 1702.83,-0.5 1811.17,-0.5 1919.5,-0.5C 1919.5,47.1667 1919.5,94.8333 1919.5,142.5C 1918.5,142.414 1917.67,142.748 1917,143.5C 1904.12,167.117 1890.96,190.45 1877.5,213.5C 1876.83,214.167 1876.17,214.833 1875.5,215.5C 1843.98,193.312 1813.31,169.979 1783.5,145.5C 1782.28,143.549 1780.62,142.049 1778.5,141C 1778.96,140.586 1779.29,140.086 1779.5,139.5C 1777.23,138.686 1774.9,138.186 1772.5,138C 1771.73,135.56 1770.06,134.227 1767.5,134C 1765.39,132.736 1764.39,130.903 1764.5,128.5C 1763.02,128.762 1761.69,128.429 1760.5,127.5C 1757.07,124.927 1753.74,122.094 1750.5,119C 1746.39,117.905 1743.05,115.572 1740.5,112C 1739.55,111.517 1738.55,111.351 1737.5,111.5C 1689.16,75.6008 1641.32,39.2675 1594,2.5C 1593.53,1.42317 1593.7,0.423175 1594.5,-0.5 Z"/></g>
<g><path style="opacity:1" fill="#276c94" d="M 1381.5,51.5 C 1371.91,62.9979 1362.07,74.3312 1352,85.5C 1349.56,88.4468 1346.73,90.7801 1343.5,92.5C 1355.48,78.2213 1368.15,64.5546 1381.5,51.5 Z"/></g>
<g><path style="opacity:1" fill="#07a3ea" d="M 1324.5,113.5 C 1402.47,155.873 1481.14,197.54 1560.5,238.5C 1591.36,368.259 1621.69,497.926 1651.5,627.5C 1651.57,631.689 1650.74,635.689 1649,639.5C 1633.51,676.829 1618.34,714.162 1603.5,751.5C 1601.71,755.725 1599.38,759.725 1596.5,763.5C 1593.15,773.53 1589.81,783.53 1586.5,793.5C 1584.25,798.257 1582.58,803.257 1581.5,808.5C 1576.66,818.856 1572.33,829.523 1568.5,840.5C 1565.91,846.089 1561.91,850.422 1556.5,853.5C 1539.83,853.667 1523.16,853.5 1506.5,853C 1350.19,846.407 1193.86,840.241 1037.5,834.5C 1036.83,833.833 1036.17,833.167 1035.5,832.5C 1075.62,727.303 1116.78,622.636 1159,518.5C 1209.82,388.627 1260.65,258.627 1311.5,128.5C 1315.49,123.179 1319.82,118.179 1324.5,113.5 Z"/></g>
<g><path style="opacity:1" fill="#022f6e" d="M 1737.5,111.5 C 1738.55,111.351 1739.55,111.517 1740.5,112C 1743.05,115.572 1746.39,117.905 1750.5,119C 1753.74,122.094 1757.07,124.927 1760.5,127.5C 1761.69,128.429 1763.02,128.762 1764.5,128.5C 1764.39,130.903 1765.39,132.736 1767.5,134C 1770.06,134.227 1771.73,135.56 1772.5,138C 1774.9,138.186 1777.23,138.686 1779.5,139.5C 1779.29,140.086 1778.96,140.586 1778.5,141C 1780.62,142.049 1782.28,143.549 1783.5,145.5C 1779.63,143.399 1775.63,141.566 1771.5,140C 1770.78,136.229 1768.44,134.563 1764.5,135C 1762.93,132.144 1760.93,129.644 1758.5,127.5C 1753.78,124.833 1749.11,122.166 1744.5,119.5C 1742.83,116.186 1740.5,113.519 1737.5,111.5 Z"/></g>
<g><path style="opacity:1" fill="#076aef" d="M 1919.5,142.5 C 1919.5,177.5 1919.5,212.5 1919.5,247.5C 1906.29,238.662 1893.29,229.662 1880.5,220.5C 1878.26,218.742 1877.26,216.408 1877.5,213.5C 1890.96,190.45 1904.12,167.117 1917,143.5C 1917.67,142.748 1918.5,142.414 1919.5,142.5 Z"/></g>
<g><path style="opacity:1" fill="#2e6cb6" d="M 1311.5,128.5 C 1260.65,258.627 1209.82,388.627 1159,518.5C 1116.78,622.636 1075.62,727.303 1035.5,832.5C 1034.83,832.5 1034.5,832.833 1034.5,833.5C 951.376,791.771 868.376,749.771 785.5,707.5C 787.167,705.5 788.833,703.5 790.5,701.5C 794.067,699.443 797.234,696.777 800,693.5C 813.77,678.905 826.937,663.905 839.5,648.5C 855.774,629.555 872.44,610.889 889.5,592.5C 893.402,590.107 896.902,587.107 900,583.5C 906.326,575.842 912.992,568.508 920,561.5C 920.483,560.552 920.649,559.552 920.5,558.5C 922.5,555.833 924.833,553.5 927.5,551.5C 930.751,548.754 933.917,545.754 937,542.5C 938.309,544.686 938.476,546.853 937.5,549C 939.5,548.333 941.5,548.333 943.5,549C 941.163,547.202 940.497,545.035 941.5,542.5C 940.624,541.749 939.624,541.249 938.5,541C 944.144,534.936 949.644,528.769 955,522.5C 955.421,525.265 956.921,526.432 959.5,526C 958.426,525.261 957.759,524.261 957.5,523C 958.852,521.036 959.686,518.869 960,516.5C 962.782,514.229 964.949,511.563 966.5,508.5C 969.863,504.978 973.697,501.978 978,499.5C 979.836,494.492 983.003,490.492 987.5,487.5C 988.889,485.132 990.222,482.799 991.5,480.5C 1022.14,445.557 1053.48,411.224 1085.5,377.5C 1092.75,371.079 1099.59,364.079 1106,356.5C 1107.78,357.24 1109.62,357.907 1111.5,358.5C 1112.39,357.675 1112.72,356.675 1112.5,355.5C 1110.65,355.778 1109.32,355.111 1108.5,353.5C 1111.26,350.748 1113.6,347.748 1115.5,344.5C 1118.8,339.868 1122.46,335.534 1126.5,331.5C 1130.07,329.443 1133.23,326.777 1136,323.5C 1141.34,317.324 1146.84,311.324 1152.5,305.5C 1153.13,304.583 1153.46,303.583 1153.5,302.5C 1166.83,287.175 1180.49,272.175 1194.5,257.5C 1207.62,244.546 1220.28,231.046 1232.5,217C 1235.13,217.88 1237.46,217.213 1239.5,215C 1238.09,214.632 1237.09,213.799 1236.5,212.5C 1239.26,209.748 1241.6,206.748 1243.5,203.5C 1265.46,177.876 1288.12,152.876 1311.5,128.5 Z"/></g>
<g><path style="opacity:1" fill="#3965a1" d="M 1243.5,203.5 C 1241.6,206.748 1239.26,209.748 1236.5,212.5C 1237.09,213.799 1238.09,214.632 1239.5,215C 1237.46,217.213 1235.13,217.88 1232.5,217C 1220.28,231.046 1207.62,244.546 1194.5,257.5C 1210.1,238.896 1226.43,220.896 1243.5,203.5 Z"/></g>
<g><path style="opacity:1" fill="#075acc" d="M 1877.5,213.5 C 1877.26,216.408 1878.26,218.742 1880.5,220.5C 1893.29,229.662 1906.29,238.662 1919.5,247.5C 1919.5,318.167 1919.5,388.833 1919.5,459.5C 1911.69,463.57 1904.03,467.904 1896.5,472.5C 1889.42,478.22 1882.09,483.72 1874.5,489C 1872.28,490.275 1869.95,491.275 1867.5,492C 1860.19,499.627 1851.52,505.294 1841.5,509C 1837.1,511.525 1833.1,514.525 1829.5,518C 1824.79,520.366 1820.45,523.366 1816.5,527C 1809.87,530.164 1803.2,533.331 1796.5,536.5C 1796.08,537.672 1795.41,538.672 1794.5,539.5C 1771.64,556.047 1747.98,571.214 1723.5,585C 1704.97,597.24 1686.8,609.74 1669,622.5C 1666.86,623.127 1664.7,623.627 1662.5,624C 1661.62,625.356 1661.29,626.856 1661.5,628.5C 1658.53,628.254 1657.2,626.588 1657.5,623.5C 1660.25,618.859 1662.25,613.859 1663.5,608.5C 1664.24,607.713 1665.08,607.047 1666,606.5C 1670.08,598.671 1674.41,591.004 1679,583.5C 1688.58,563.998 1698.91,544.998 1710,526.5C 1721.93,503.302 1733.93,479.969 1746,456.5C 1751.65,449.191 1755.98,441.191 1759,432.5C 1798.86,360.782 1837.69,288.448 1875.5,215.5C 1876.17,214.833 1876.83,214.167 1877.5,213.5 Z"/></g>
<g><path style="opacity:1" fill="#39659e" d="M 1153.5,302.5 C 1153.46,303.583 1153.13,304.583 1152.5,305.5C 1146.84,311.324 1141.34,317.324 1136,323.5C 1133.23,326.777 1130.07,329.443 1126.5,331.5C 1135.16,321.506 1144.16,311.839 1153.5,302.5 Z"/></g>
<g><path style="opacity:1" fill="#3666a3" d="M 1115.5,344.5 C 1113.6,347.748 1111.26,350.748 1108.5,353.5C 1109.32,355.111 1110.65,355.778 1112.5,355.5C 1112.72,356.675 1112.39,357.675 1111.5,358.5C 1109.62,357.907 1107.78,357.24 1106,356.5C 1099.59,364.079 1092.75,371.079 1085.5,377.5C 1094.79,365.876 1104.79,354.876 1115.5,344.5 Z"/></g>
<g><path style="opacity:1" fill="#054eb0" d="M 1919.5,459.5 C 1919.5,645.833 1919.5,832.167 1919.5,1018.5C 1918.85,1018.2 1918.18,1017.86 1917.5,1017.5C 1901.25,992.257 1884.58,967.59 1867.5,943.5C 1867.66,942.127 1867.49,940.793 1867,939.5C 1864.45,937.403 1862.11,935.07 1860,932.5C 1854.93,923.436 1849.09,914.936 1842.5,907C 1841.55,906.517 1840.55,906.351 1839.5,906.5C 1839.66,904.801 1839.49,903.134 1839,901.5C 1834.27,894.233 1829.27,887.233 1824,880.5C 1823.18,878.212 1822.51,875.878 1822,873.5C 1818.84,869.726 1815.5,866.059 1812,862.5C 1811.21,857.92 1808.71,854.587 1804.5,852.5C 1803.4,848.229 1801.24,844.563 1798,841.5C 1793.72,833.185 1789.22,825.019 1784.5,817C 1770.28,796.075 1755.45,775.575 1740,755.5C 1737.58,752.284 1735.92,748.617 1735,744.5C 1732.11,741.729 1729.44,738.729 1727,735.5C 1721.58,725.64 1715.25,716.306 1708,707.5C 1707.51,706.207 1707.34,704.873 1707.5,703.5C 1706.18,703.67 1705.01,703.337 1704,702.5C 1696.68,689.882 1688.68,677.882 1680,666.5C 1679.67,664.833 1679.33,663.167 1679,661.5C 1676.67,657.833 1673.67,654.833 1670,652.5C 1668.01,645.826 1664.35,640.16 1659,635.5C 1658,633.167 1657,630.833 1656,628.5C 1655.62,629.056 1655.12,629.389 1654.5,629.5C 1654.75,627.033 1655.75,625.033 1657.5,623.5C 1657.2,626.588 1658.53,628.254 1661.5,628.5C 1661.29,626.856 1661.62,625.356 1662.5,624C 1664.7,623.627 1666.86,623.127 1669,622.5C 1686.8,609.74 1704.97,597.24 1723.5,585C 1747.98,571.214 1771.64,556.047 1794.5,539.5C 1795.41,538.672 1796.08,537.672 1796.5,536.5C 1803.2,533.331 1809.87,530.164 1816.5,527C 1820.45,523.366 1824.79,520.366 1829.5,518C 1833.1,514.525 1837.1,511.525 1841.5,509C 1851.52,505.294 1860.19,499.627 1867.5,492C 1869.95,491.275 1872.28,490.275 1874.5,489C 1882.09,483.72 1889.42,478.22 1896.5,472.5C 1904.03,467.904 1911.69,463.57 1919.5,459.5 Z"/></g>
<g><path style="opacity:1" fill="#3968a2" d="M 991.5,480.5 C 990.222,482.799 988.889,485.132 987.5,487.5C 983.003,490.492 979.836,494.492 978,499.5C 973.697,501.978 969.863,504.978 966.5,508.5C 974.12,498.545 982.454,489.212 991.5,480.5 Z"/></g>
<g><path style="opacity:1" fill="#3568a9" d="M 966.5,508.5 C 964.949,511.563 962.782,514.229 960,516.5C 959.686,518.869 958.852,521.036 957.5,523C 957.759,524.261 958.426,525.261 959.5,526C 956.921,526.432 955.421,525.265 955,522.5C 949.644,528.769 944.144,534.936 938.5,541C 939.624,541.249 940.624,541.749 941.5,542.5C 940.497,545.035 941.163,547.202 943.5,549C 941.5,548.333 939.5,548.333 937.5,549C 938.476,546.853 938.309,544.686 937,542.5C 933.917,545.754 930.751,548.754 927.5,551.5C 940.159,536.842 953.159,522.509 966.5,508.5 Z"/></g>
<g><path style="opacity:1" fill="#3a649d" d="M 920.5,558.5 C 920.649,559.552 920.483,560.552 920,561.5C 912.992,568.508 906.326,575.842 900,583.5C 896.902,587.107 893.402,590.107 889.5,592.5C 899.862,581.141 910.195,569.807 920.5,558.5 Z"/></g>
<g><path style="opacity:1" fill="#0760db" d="M 1651.5,627.5 C 1652.27,628.263 1652.77,629.263 1653,630.5C 1653.38,629.944 1653.88,629.611 1654.5,629.5C 1655.12,629.389 1655.62,629.056 1656,628.5C 1657,630.833 1658,633.167 1659,635.5C 1664.35,640.16 1668.01,645.826 1670,652.5C 1673.67,654.833 1676.67,657.833 1679,661.5C 1679.33,663.167 1679.67,664.833 1680,666.5C 1688.68,677.882 1696.68,689.882 1704,702.5C 1705.01,703.337 1706.18,703.67 1707.5,703.5C 1707.34,704.873 1707.51,706.207 1708,707.5C 1715.25,716.306 1721.58,725.64 1727,735.5C 1729.44,738.729 1732.11,741.729 1735,744.5C 1735.92,748.617 1737.58,752.284 1740,755.5C 1755.45,775.575 1770.28,796.075 1784.5,817C 1789.22,825.019 1793.72,833.185 1798,841.5C 1801.24,844.563 1803.4,848.229 1804.5,852.5C 1808.71,854.587 1811.21,857.92 1812,862.5C 1815.5,866.059 1818.84,869.726 1822,873.5C 1822.51,875.878 1823.18,878.212 1824,880.5C 1829.27,887.233 1834.27,894.233 1839,901.5C 1839.49,903.134 1839.66,904.801 1839.5,906.5C 1840.55,906.351 1841.55,906.517 1842.5,907C 1849.09,914.936 1854.93,923.436 1860,932.5C 1862.11,935.07 1864.45,937.403 1867,939.5C 1867.49,940.793 1867.66,942.127 1867.5,943.5C 1884.58,967.59 1901.25,992.257 1917.5,1017.5C 1918.18,1017.86 1918.85,1018.2 1919.5,1018.5C 1919.5,1038.83 1919.5,1059.17 1919.5,1079.5C 1770.83,1079.5 1622.17,1079.5 1473.5,1079.5C 1476.83,1071.5 1480.17,1063.5 1483.5,1055.5C 1486.67,1049.68 1490.33,1044.18 1494.5,1039C 1493.49,1036.14 1493.49,1032.97 1494.5,1029.5C 1498.53,1021.43 1502.03,1013.09 1505,1004.5C 1506.33,1003.83 1507.33,1002.83 1508,1001.5C 1508.83,997.534 1509.33,993.534 1509.5,989.5C 1528.72,939.557 1548.39,889.89 1568.5,840.5C 1569.5,840.586 1570.33,840.252 1571,839.5C 1572.09,836.956 1572.76,834.289 1573,831.5C 1578.07,824.691 1580.9,817.024 1581.5,808.5C 1582.58,803.257 1584.25,798.257 1586.5,793.5C 1592.75,779.91 1598.42,765.91 1603.5,751.5C 1618.34,714.162 1633.51,676.829 1649,639.5C 1650.74,635.689 1651.57,631.689 1651.5,627.5 Z"/></g>
<g><path style="opacity:1" fill="#39659d" d="M 839.5,648.5 C 826.937,663.905 813.77,678.905 800,693.5C 797.234,696.777 794.067,699.443 790.5,701.5C 806.494,683.507 822.827,665.84 839.5,648.5 Z"/></g>
<g><path style="opacity:1" fill="#0d3e7b" d="M 785.5,707.5 C 868.376,749.771 951.376,791.771 1034.5,833.5C 1034.77,835.38 1034.1,836.713 1032.5,837.5C 1032.26,836.903 1031.76,836.57 1031,836.5C 952.612,869.839 874.279,903.172 796,936.5C 687.167,983.947 578.001,1030.78 468.5,1077C 467.619,1077.71 466.953,1078.54 466.5,1079.5C 460.167,1079.5 453.833,1079.5 447.5,1079.5C 449.862,1076.81 452.196,1074.14 454.5,1071.5C 458.415,1069.26 461.749,1066.26 464.5,1062.5C 465.325,1061.61 466.325,1061.28 467.5,1061.5C 468.239,1057.59 470.572,1055.09 474.5,1054C 474.167,1053.67 473.833,1053.33 473.5,1053C 476.156,1048.5 479.822,1045.33 484.5,1043.5C 484.878,1041.08 485.545,1038.75 486.5,1036.5C 489.436,1034.74 492.269,1032.74 495,1030.5C 500.756,1023.07 506.922,1015.9 513.5,1009C 514.448,1008.52 515.448,1008.35 516.5,1008.5C 516.269,1005.22 517.603,1002.72 520.5,1001C 520.272,1000.6 519.938,1000.43 519.5,1000.5C 536.124,980.875 553.457,961.875 571.5,943.5C 572.239,943.631 572.906,943.464 573.5,943C 580.011,935.657 586.678,928.49 593.5,921.5C 594.429,920.311 594.762,918.978 594.5,917.5C 600.826,909.842 607.492,902.508 614.5,895.5C 617.731,893.78 620.564,891.447 623,888.5C 624,889.833 625,889.833 626,888.5C 626.333,889.167 626.667,889.833 627,890.5C 627.595,889.101 627.428,887.768 626.5,886.5C 631.867,878.617 637.867,871.117 644.5,864C 650.215,863.513 650.882,865.513 646.5,870C 648.289,870.52 649.956,870.187 651.5,869C 652.557,866.661 653.89,864.495 655.5,862.5C 653.611,861.396 651.945,860.063 650.5,858.5C 651,857.119 652,856.453 653.5,856.5C 655.003,857.523 656.503,858.523 658,859.5C 662.7,856.03 662.2,855.03 656.5,856.5C 656.338,854.473 656.505,852.473 657,850.5C 662.166,845.038 667.333,839.538 672.5,834C 671.906,833.536 671.239,833.369 670.5,833.5C 687.167,815.167 703.833,796.833 720.5,778.5C 721.675,778.719 722.675,778.386 723.5,777.5C 739.389,759.934 755.389,742.267 771.5,724.5C 772.325,723.614 773.325,723.281 774.5,723.5C 774.351,722.448 774.517,721.448 775,720.5C 777.127,718.886 778.627,716.886 779.5,714.5C 780.757,711.573 782.757,709.239 785.5,707.5 Z"/></g>
<g><path style="opacity:1" fill="#203b69" d="M 779.5,714.5 C 778.627,716.886 777.127,718.886 775,720.5C 774.517,721.448 774.351,722.448 774.5,723.5C 773.325,723.281 772.325,723.614 771.5,724.5C 755.389,742.267 739.389,759.934 723.5,777.5C 722.675,778.386 721.675,778.719 720.5,778.5C 739.71,756.745 759.377,735.412 779.5,714.5 Z"/></g>
<g><path style="opacity:1" fill="#1199f0" d="M 1603.5,751.5 C 1598.42,765.91 1592.75,779.91 1586.5,793.5C 1589.81,783.53 1593.15,773.53 1596.5,763.5C 1599.38,759.725 1601.71,755.725 1603.5,751.5 Z"/></g>
<g><path style="opacity:1" fill="#036ea0" d="M 1037.5,834.5 C 1193.86,840.241 1350.19,846.407 1506.5,853C 1523.16,853.5 1539.83,853.667 1556.5,853.5C 1555.71,854.401 1554.71,855.068 1553.5,855.5C 1550.36,859.428 1546.36,862.428 1541.5,864.5C 1540.38,865.914 1539.38,867.414 1538.5,869C 1531.33,873.358 1524.99,878.524 1519.5,884.5C 1498.7,900.801 1478.03,917.301 1457.5,934C 1454.51,937.165 1451.51,940.332 1448.5,943.5C 1431.96,955.369 1416.29,968.369 1401.5,982.5C 1398.56,984.311 1395.56,986.144 1392.5,988C 1385.43,994.184 1378.43,1000.35 1371.5,1006.5C 1363.66,1012.83 1355.66,1019 1347.5,1025C 1345.23,1026.76 1343.57,1028.92 1342.5,1031.5C 1340,1033.14 1337.33,1034.64 1334.5,1036C 1326.81,1042.51 1319.15,1049.01 1311.5,1055.5C 1309.8,1055.34 1308.13,1055.51 1306.5,1056C 1304.03,1059.06 1301.36,1061.89 1298.5,1064.5C 1292.51,1064.72 1289.01,1067.39 1288,1072.5C 1286.45,1073.97 1284.61,1074.97 1282.5,1075.5C 1281.29,1076.58 1280.63,1077.91 1280.5,1079.5C 1248.83,1079.5 1217.17,1079.5 1185.5,1079.5C 1135.71,998.079 1086.04,916.579 1036.5,835C 1036.73,834.601 1037.06,834.435 1037.5,834.5 Z"/></g>
<g><path style="opacity:1" fill="#0267d4" d="M 1581.5,808.5 C 1580.9,817.024 1578.07,824.691 1573,831.5C 1572.76,834.289 1572.09,836.956 1571,839.5C 1570.33,840.252 1569.5,840.586 1568.5,840.5C 1572.33,829.523 1576.66,818.856 1581.5,808.5 Z"/></g>
<g><path style="opacity:1" fill="#5a8ac6" d="M 1035.5,832.5 C 1036.17,833.167 1036.83,833.833 1037.5,834.5C 1037.06,834.435 1036.73,834.601 1036.5,835C 1086.04,916.579 1135.71,998.079 1185.5,1079.5C 1073.17,1079.5 960.833,1079.5 848.5,1079.5C 910.217,999.117 971.55,918.451 1032.5,837.5C 1034.1,836.713 1034.77,835.38 1034.5,833.5C 1034.5,832.833 1034.83,832.5 1035.5,832.5 Z"/></g>
<g><path style="opacity:1" fill="#082c5f" d="M 1032.5,837.5 C 971.55,918.451 910.217,999.117 848.5,1079.5C 721.167,1079.5 593.833,1079.5 466.5,1079.5C 466.953,1078.54 467.619,1077.71 468.5,1077C 578.001,1030.78 687.167,983.947 796,936.5C 874.279,903.172 952.612,869.839 1031,836.5C 1031.76,836.57 1032.26,836.903 1032.5,837.5 Z"/></g>
<g><path style="opacity:1" fill="#143c73" d="M 670.5,833.5 C 671.239,833.369 671.906,833.536 672.5,834C 667.333,839.538 662.166,845.038 657,850.5C 656.505,852.473 656.338,854.473 656.5,856.5C 662.2,855.03 662.7,856.03 658,859.5C 656.503,858.523 655.003,857.523 653.5,856.5C 652,856.453 651,857.119 650.5,858.5C 651.945,860.063 653.611,861.396 655.5,862.5C 653.89,864.495 652.557,866.661 651.5,869C 649.956,870.187 648.289,870.52 646.5,870C 650.882,865.513 650.215,863.513 644.5,864C 637.867,871.117 631.867,878.617 626.5,886.5C 627.428,887.768 627.595,889.101 627,890.5C 626.667,889.833 626.333,889.167 626,888.5C 625,889.833 624,889.833 623,888.5C 620.564,891.447 617.731,893.78 614.5,895.5C 632.797,874.535 651.463,853.868 670.5,833.5 Z"/></g>
<g><path style="opacity:1" fill="#034aa9" d="M 1568.5,840.5 C 1548.39,889.89 1528.72,939.557 1509.5,989.5C 1505.61,998.451 1501.77,1007.45 1498,1016.5C 1497.02,1018.74 1496.52,1021.07 1496.5,1023.5C 1495.5,1023.5 1494.5,1023.5 1493.5,1023.5C 1490.73,1034.36 1487.4,1045.03 1483.5,1055.5C 1480.17,1063.5 1476.83,1071.5 1473.5,1079.5C 1410.5,1079.5 1347.5,1079.5 1284.5,1079.5C 1290.7,1072.81 1297.7,1066.97 1305.5,1062C 1307.03,1059.31 1309.03,1057.14 1311.5,1055.5C 1319.15,1049.01 1326.81,1042.51 1334.5,1036C 1337.33,1034.64 1340,1033.14 1342.5,1031.5C 1347.56,1031.76 1350.56,1029.43 1351.5,1024.5C 1353.75,1023.88 1355.42,1022.54 1356.5,1020.5C 1358.82,1018.51 1361.48,1017.51 1364.5,1017.5C 1364.34,1016.13 1364.51,1014.79 1365,1013.5C 1367.86,1011.69 1370.03,1009.35 1371.5,1006.5C 1378.43,1000.35 1385.43,994.184 1392.5,988C 1395.56,986.144 1398.56,984.311 1401.5,982.5C 1403.39,981.952 1405.06,980.952 1406.5,979.5C 1407.48,979.977 1408.31,980.643 1409,981.5C 1410.67,979.372 1412.83,978.039 1415.5,977.5C 1413.82,976.146 1413.32,974.479 1414,972.5C 1418.44,968.512 1423.27,965.845 1428.5,964.5C 1431.34,960.499 1434.34,956.666 1437.5,953C 1440.78,951.352 1443.94,949.519 1447,947.5C 1447.41,946.099 1447.91,944.766 1448.5,943.5C 1451.51,940.332 1454.51,937.165 1457.5,934C 1478.03,917.301 1498.7,900.801 1519.5,884.5C 1520.87,884.657 1522.21,884.49 1523.5,884C 1526.57,880.333 1529.9,877 1533.5,874C 1536.06,871.587 1539.06,869.92 1542.5,869C 1545,865.158 1548.33,862.491 1552.5,861C 1553.41,859.301 1553.74,857.467 1553.5,855.5C 1554.71,855.068 1555.71,854.401 1556.5,853.5C 1561.91,850.422 1565.91,846.089 1568.5,840.5 Z"/></g>
<g><path style="opacity:1" fill="#0150a2" d="M 1553.5,855.5 C 1553.74,857.467 1553.41,859.301 1552.5,861C 1548.33,862.491 1545,865.158 1542.5,869C 1539.06,869.92 1536.06,871.587 1533.5,874C 1529.9,877 1526.57,880.333 1523.5,884C 1522.21,884.49 1520.87,884.657 1519.5,884.5C 1524.99,878.524 1531.33,873.358 1538.5,869C 1539.38,867.414 1540.38,865.914 1541.5,864.5C 1546.36,862.428 1550.36,859.428 1553.5,855.5 Z"/></g>
<g><path style="opacity:1" fill="#1d3967" d="M 594.5,917.5 C 594.762,918.978 594.429,920.311 593.5,921.5C 586.678,928.49 580.011,935.657 573.5,943C 572.906,943.464 572.239,943.631 571.5,943.5C 578.706,934.417 586.373,925.75 594.5,917.5 Z"/></g>
<g><path style="opacity:1" fill="#034ea5" d="M 1448.5,943.5 C 1447.91,944.766 1447.41,946.099 1447,947.5C 1443.94,949.519 1440.78,951.352 1437.5,953C 1434.34,956.666 1431.34,960.499 1428.5,964.5C 1423.27,965.845 1418.44,968.512 1414,972.5C 1413.32,974.479 1413.82,976.146 1415.5,977.5C 1412.83,978.039 1410.67,979.372 1409,981.5C 1408.31,980.643 1407.48,979.977 1406.5,979.5C 1405.06,980.952 1403.39,981.952 1401.5,982.5C 1416.29,968.369 1431.96,955.369 1448.5,943.5 Z"/></g>
<g><path style="opacity:1" fill="#1d3b6a" d="M 519.5,1000.5 C 519.938,1000.43 520.272,1000.6 520.5,1001C 517.603,1002.72 516.269,1005.22 516.5,1008.5C 515.448,1008.35 514.448,1008.52 513.5,1009C 506.922,1015.9 500.756,1023.07 495,1030.5C 492.269,1032.74 489.436,1034.74 486.5,1036.5C 497.509,1024.46 508.509,1012.46 519.5,1000.5 Z"/></g>
<g><path style="opacity:1" fill="#095ed0" d="M 1509.5,989.5 C 1509.33,993.534 1508.83,997.534 1508,1001.5C 1507.33,1002.83 1506.33,1003.83 1505,1004.5C 1502.03,1013.09 1498.53,1021.43 1494.5,1029.5C 1493.49,1032.97 1493.49,1036.14 1494.5,1039C 1490.33,1044.18 1486.67,1049.68 1483.5,1055.5C 1487.4,1045.03 1490.73,1034.36 1493.5,1023.5C 1494.5,1023.5 1495.5,1023.5 1496.5,1023.5C 1496.52,1021.07 1497.02,1018.74 1498,1016.5C 1501.77,1007.45 1505.61,998.451 1509.5,989.5 Z"/></g>
<g><path style="opacity:1" fill="#014ea3" d="M 1371.5,1006.5 C 1370.03,1009.35 1367.86,1011.69 1365,1013.5C 1364.51,1014.79 1364.34,1016.13 1364.5,1017.5C 1361.48,1017.51 1358.82,1018.51 1356.5,1020.5C 1355.42,1022.54 1353.75,1023.88 1351.5,1024.5C 1350.56,1029.43 1347.56,1031.76 1342.5,1031.5C 1343.57,1028.92 1345.23,1026.76 1347.5,1025C 1355.66,1019 1363.66,1012.83 1371.5,1006.5 Z"/></g>
<g><path style="opacity:1" fill="#1e3968" d="M 486.5,1036.5 C 485.545,1038.75 484.878,1041.08 484.5,1043.5C 479.822,1045.33 476.156,1048.5 473.5,1053C 473.833,1053.33 474.167,1053.67 474.5,1054C 470.572,1055.09 468.239,1057.59 467.5,1061.5C 466.325,1061.28 465.325,1061.61 464.5,1062.5C 461.749,1066.26 458.415,1069.26 454.5,1071.5C 465.195,1059.81 475.862,1048.14 486.5,1036.5 Z"/></g>
<g><path style="opacity:1" fill="#0769a7" d="M 1311.5,1055.5 C 1309.03,1057.14 1307.03,1059.31 1305.5,1062C 1297.7,1066.97 1290.7,1072.81 1284.5,1079.5C 1283.17,1079.5 1281.83,1079.5 1280.5,1079.5C 1280.63,1077.91 1281.29,1076.58 1282.5,1075.5C 1284.61,1074.97 1286.45,1073.97 1288,1072.5C 1289.01,1067.39 1292.51,1064.72 1298.5,1064.5C 1301.36,1061.89 1304.03,1059.06 1306.5,1056C 1308.13,1055.51 1309.8,1055.34 1311.5,1055.5 Z"/></g>
</svg>
